<?xml version="1.0" encoding="utf-8"?>
<!-- Generator: Adobe Illustrator 26.3.1, SVG Export Plug-In . SVG Version: 6.00 Build 0)  -->
<svg version="1.1" id="Layer_1" xmlns="http://www.w3.org/2000/svg" xmlns:xlink="http://www.w3.org/1999/xlink" x="0px" y="0px"
	 width="20px" height="21px" viewBox="0 0 20 21" style="enable-background:new 0 0 20 21;" xml:space="preserve">
<style type="text/css">
	.st0{enable-background:new    ;}
	.st1{fill:#ADB5BD;}
</style>
<g class="st0">
	<path class="st1" d="M7.1,11.4c-5.2-3.8-5.6-4.1-6.8-5C0.1,6.2,0,5.9,0,5.6V4.9C0,3.8,0.8,3,1.9,3h16.2c1,0,1.9,0.8,1.9,1.9v0.7
		c0,0.3-0.1,0.6-0.4,0.7c-1.2,0.9-1.6,1.3-6.8,5c-0.7,0.5-2,1.6-2.9,1.6C9.1,13,7.8,11.9,7.1,11.4z M20,8.1v8c0,1-0.8,1.9-1.9,1.9
		H1.9c-1,0-1.9-0.8-1.9-1.9v-8C0,7.9,0.2,7.8,0.4,8c0.9,0.7,2,1.5,6,4.4c0.8,0.6,2.2,1.9,3.6,1.9c1.4,0,2.8-1.3,3.6-1.9
		c4-2.9,5.1-3.8,6-4.4C19.8,7.8,20,7.9,20,8.1z"/>
</g>
</svg>
