<?xml version="1.0" encoding="utf-8"?>
<!-- Generator: Adobe Illustrator 26.3.1, SVG Export Plug-In . SVG Version: 6.00 Build 0)  -->
<svg version="1.1" id="Layer_1" xmlns="http://www.w3.org/2000/svg" xmlns:xlink="http://www.w3.org/1999/xlink" x="0px" y="0px"
	 width="21px" height="24px" viewBox="0 0 21 24" style="enable-background:new 0 0 21 24;" xml:space="preserve">
<style type="text/css">
	.st0{enable-background:new    ;}
	.st1{fill:#ADB5BD;}
</style>
<g class="st0">
	<path class="st1" d="M0,3.3C0,2,1.1,0.9,2.4,0.9c1.3,0,2.4,1.1,2.4,2.4S3.8,5.7,2.4,5.7C1.1,5.7,0,4.6,0,3.3z M0.3,21V7.6h4.2V21
		H0.3z M16,21v-6.5c0-1.6,0-3.6-2.2-3.6c-2.2,0-2.5,1.7-2.5,3.4V21H7.1V7.6h4v1.8h0.1c0.6-1.1,1.9-2.2,3.9-2.2c4.2,0,5,2.8,5,6.4V21
		h0H16z"/>
</g>
</svg>
