<svg xmlns="http://www.w3.org/2000/svg" viewBox="0 0 280.07 62.05"><defs><style>.a{fill:#221f20;}</style></defs><title>logo-black</title><path class="a" d="M51.56,6.74H42.67V2.25a2.25,2.25,0,0,0-4.5,0V6.74H20.34V2.25a2.25,2.25,0,0,0-4.5,0V6.74H7a7,7,0,0,0-7,7V46.44a7,7,0,0,0,7,7h44.6a7,7,0,0,0,6.95-7V13.7A7,7,0,0,0,51.56,6.74ZM54,46.44a2.46,2.46,0,0,1-2.45,2.46H7A2.46,2.46,0,0,1,4.5,46.44V13.7A2.46,2.46,0,0,1,7,11.24h8.88v4.49a2.25,2.25,0,0,0,4.5,0V11.24H38.17v4.49a2.25,2.25,0,1,0,4.5,0V11.24h8.89A2.46,2.46,0,0,1,54,13.7Z"/><path class="a" d="M44.2,26.4a2.25,2.25,0,0,0-3,.93,13.48,13.48,0,0,1-23.8,0,2.25,2.25,0,0,0-4,2.11,18,18,0,0,0,31.75,0A2.25,2.25,0,0,0,44.2,26.4Z"/><path class="a" d="M75.25,11.75H98.11a1,1,0,0,1,1,1v1.89a1,1,0,0,1-1,1h-8a1,1,0,0,0-1,1V47.46a1,1,0,0,1-1,1H85.31a1,1,0,0,1-1-1V16.64a1,1,0,0,0-1-1H75.25a1,1,0,0,1-1-1V12.75A1,1,0,0,1,75.25,11.75Z"/><path class="a" d="M107.35,9.71a.9.9,0,0,1,.26-.32c2.62-2.24,5.66-.45,5.66,2.25a3.2,3.2,0,0,1-3.16,3.27C107.66,14.91,106,12.39,107.35,9.71Zm1.29,9.88h2.79a1,1,0,0,1,1,1V47.46a1,1,0,0,1-1,1h-2.79a1,1,0,0,1-1-1V20.59A1,1,0,0,1,108.64,19.59Z"/><path class="a" d="M135.18,19.12a13.1,13.1,0,0,1,9,3.52,1,1,0,0,0,1.7-.7V10.48a1,1,0,0,1,1-1h2.84a1,1,0,0,1,1,1v37a1,1,0,0,1-1,1h-2.84a1,1,0,0,1-1-1V46a1,1,0,0,0-1.72-.69,12.35,12.35,0,0,1-9,3.58c-7.74,0-13.69-6.06-13.69-15S127.39,19.12,135.18,19.12Zm.9,4.16c-5.27,0-9.75,3.84-9.75,10.64s4.48,10.8,9.75,10.8,9.8-3.95,9.8-10.75S141.35,23.28,136.08,23.28Z"/><path class="a" d="M182.06,19.59h2.78a1,1,0,0,1,.92,1.38L169.2,61.43a1,1,0,0,1-.93.62h-2.79a1,1,0,0,1-.92-1.38l5-12.15a1,1,0,0,0,0-.76L158.6,21a1,1,0,0,1,.93-1.38h3.15a1,1,0,0,1,.93.64l7.87,20.33a1,1,0,0,0,1.87,0l7.78-20.31A1,1,0,0,1,182.06,19.59Z"/><path class="a" d="M210.29,11.27c7.4,0,13.38,3.46,16.39,9.67a1,1,0,0,1-.91,1.44h-3.59a1,1,0,0,1-.89-.56c-2.07-4.07-5.86-6.34-11-6.34-7.69,0-13.43,5.59-13.43,14.6s5.74,14.53,13.43,14.53c5.14,0,8.93-2.26,11-6.29a1,1,0,0,1,.89-.55h3.59a1,1,0,0,1,.9,1.45c-3,6.14-9,9.55-16.38,9.55C200,48.77,192,41.08,192,30.08S200,11.27,210.29,11.27Z"/><path class="a" d="M249,19.12a12.56,12.56,0,0,1,9,3.5,1,1,0,0,0,1.7-.69V20.59a1,1,0,0,1,1-1h2.85a1,1,0,0,1,1,1V47.46a1,1,0,0,1-1,1h-2.85a1,1,0,0,1-1-1V46a1,1,0,0,0-1.71-.69,12.53,12.53,0,0,1-9.09,3.58c-7.69,0-13.64-6.06-13.64-15S241.2,19.12,249,19.12Zm1,4.16c-5.27,0-9.75,3.84-9.75,10.64s4.48,10.8,9.75,10.8,9.79-3.95,9.79-10.75S255.16,23.28,249.9,23.28Z"/><path class="a" d="M276.28,9.48h2.79a1,1,0,0,1,1,1v37a1,1,0,0,1-1,1h-2.79a1,1,0,0,1-1-1v-37A1,1,0,0,1,276.28,9.48Z"/></svg>