<?xml version="1.0" encoding="utf-8"?>
<!-- Generator: Adobe Illustrator 26.3.1, SVG Export Plug-In . SVG Version: 6.00 Build 0)  -->
<svg version="1.1" id="Layer_1" xmlns="http://www.w3.org/2000/svg" xmlns:xlink="http://www.w3.org/1999/xlink" x="0px" y="0px"
	 width="22px" height="22px" viewBox="0 0 22 22" style="enable-background:new 0 0 22 22;" xml:space="preserve">
<style type="text/css">
	.st0{enable-background:new    ;}
	.st1{fill:#ADB5BD;}
</style>
<g class="st0">
	<path class="st1" d="M19.8,6.9c0,6-4.5,12.8-12.8,12.8c-2.6,0-4.9-0.7-6.9-2c0.4,0,0.7,0.1,1.1,0.1c2.1,0,4-0.7,5.6-1.9
		c-2,0-3.6-1.3-4.2-3.1c0.3,0,0.6,0.1,0.9,0.1c0.4,0,0.8-0.1,1.2-0.2c-2.1-0.4-3.6-2.2-3.6-4.4V8.1c0.6,0.3,1.3,0.5,2,0.6
		c-1.2-0.8-2-2.2-2-3.8c0-0.8,0.2-1.6,0.6-2.3c2.2,2.7,5.6,4.5,9.3,4.7c-0.1-0.3-0.1-0.7-0.1-1c0-2.5,2-4.5,4.5-4.5
		c1.3,0,2.5,0.5,3.3,1.4c1-0.2,2-0.6,2.9-1.1c-0.3,1-1,1.9-2,2.5c0.9-0.1,1.8-0.3,2.6-0.7c-0.6,0.9-1.4,1.7-2.3,2.3
		C19.8,6.5,19.8,6.7,19.8,6.9z"/>
</g>
</svg>
